# AST/ASF file generated using VICON BodyLanguage
# -----------------------------------------------
:version 1.10
:name VICON
:units
  mass 1.0
  length 0.45
  angle deg
:documentation
   .ast/.asf automatically generated from VICON data using
   VICON BodyBuilder and BodyLanguage model FoxedUp or BRILLIANT.MOD
:root
   order TX TY TZ RX RY RZ
   axis XYZ
   position 0 0 0  
   orientation 0 0 0 
:bonedata
  begin
     id 1 
     name lhipjoint
     direction 0.575328 -0.747301 0.332475 
     length 2.40933 
     axis 0 0 0  XYZ
  end
  begin
     id 2 
     name lfemur
     direction 0.34202 -0.939693 0  
     length 7.31453  
     axis 0 0 20  XYZ
    dof rx ry rz
    limits (-160.0 20.0)
           (-70.0 70.0)
           (-60.0 70.0)
  end
  begin
     id 3 
     name ltibia
     direction 0.34202 -0.939693 0   
     length 7.82185   
     axis 0 0 20   XYZ
    dof rx
    limits (-10.0 170.0)
  end
  begin
     id 4 
     name lfoot
     direction 0.0795993 -0.218697 0.972541   
     length 2.19173   
     axis -90 7.62852e-016 20   XYZ
    dof rx rz
    limits (-45.0 90.0)
           (-70.0 20.0)
  end
  begin
     id 5 
     name ltoes
     direction 1.53537e-011 -4.21894e-011 1   
     length 1.10023   
     axis -90 7.62852e-016 20   XYZ
    dof rx
    limits (-90.0 20.0)
  end
  begin
     id 6 
     name rhipjoint
     direction -0.513884 -0.783789 0.348708   
     length 2.29716  
     axis 0 0 0  XYZ 
  end
  begin
     id 7 
     name rfemur
     direction -0.34202 -0.939693 0   
     length 7.59573   
     axis 0 0 -20   XYZ
    dof rx ry rz
    limits (-160.0 20.0)
           (-70.0 70.0)
           (-70.0 60.0)
  end
  begin
     id 8 
     name rtibia
     direction -0.34202 -0.939693 0   
     length 7.66402   
     axis 0 0 -20   XYZ
    dof rx
    limits (-10.0 170.0)
 end
 begin
     id 9 
     name rfoot
     direction -0.137793 -0.378584 0.915253   
     length 2.27056  
     axis -90 -7.62852e-016 -20   XYZ
    dof rx rz
    limits (-45.0 90.0)
           (-20.0 70.0)
  end
  begin
     id 10 
     name rtoes
     direction -1.53493e-011 -4.22159e-011 1   
     length 1.11766   
     axis -90 -7.62852e-016 -20   XYZ
    dof rx
    limits (-90.0 20.0)
  end
  begin
     id 11 
     name lowerback
     direction -0.00732775 0.998356 -0.05685   
     length 2.16513   
     axis 0 0 0   XYZ
    dof rx ry rz
    limits (-20.0 45.0)
           (-30.0 30.0)
           (-30.0 30.0)
  end
  begin
     id 12 
     name upperback
     direction 0.0218081 0.999627 -0.0164647   
     length 2.16755   
     axis 0 0 0   XYZ
    dof rx ry rz
    limits (-20.0 45.0)
           (-30.0 30.0)
           (-30.0 30.0)
  end
  begin
     id 13 
     name thorax
     direction 0.02365 0.999661 0.0108914   
     length 2.16932   
     axis 0 0 0   XYZ
    dof rx ry rz
    limits (-20.0 45.0)
           (-30.0 30.0)
           (-30.0 30.0)
  end
  begin
     id 14 
     name lowerneck
     direction -0.0523929 0.978385 0.200044   
     length 1.63877   
     axis 0 0 0   XYZ
    dof rx ry rz
    limits (-20.0 45.0)
           (-30.0 30.0)
           (-30.0 30.0)
  end
  begin
     id 15 
     name upperneck
     direction 0.0448674 0.981321 -0.187074   
     length 1.69014   
     axis 0 0 0   XYZ
    dof rx ry rz
    limits (-20.0 45.0)
           (-30.0 30.0)
           (-30.0 30.0)
  end
  begin
     id 16
     name head
     direction 0.0199089 0.996118 -0.0857429  
     length 1.70094  
     axis 0 0 0   XYZ
    dof rx ry rz
    limits (-20.0 45.0)
           (-30.0 30.0)
           (-30.0 30.0)
  end
  begin
     id 17 
     name lclavicle
     direction 0.940366 0.30191 -0.156722  
     length 3.37521  
     axis 0 0 0   XYZ
    dof ry rz
    limits (-20.0 10.0)
           (0.0 20.0)
  end
  begin
     id 18 
     name lhumerus
     direction 1 -4.4897e-011 -1.7911e-027   
     length 5.25287   
     axis 180 -30 -90   XYZ
    dof rx ry rz
    limits (-60.0 90.0)
           (-90.0 90.0)
           (-90.0 90.0)
  end
  begin
     id 19
     name lradius
     direction 1 -4.48951e-011 1.04424e-027   
     length 3.51014   
     axis 180 -30 -90   XYZ
    dof rx
    limits (-10.0 170.0)
  end
  begin
     id 20
     name lwrist
     direction 1 -4.48997e-011 -9.5942e-028   
     length 1.75507   
     axis 8.48502e-016 90 90   XYZ
    dof ry
    limits (-180.0 0.0)
 end
  begin
     id 21 
     name lhand
     direction 1 -4.48831e-011 -1.90777e-027   
     length 0.706179   
     axis 1.22306e-015 90 90   XYZ
    dof rx rz
    limits (-90.0 90.0)
           (-45.0 45.0)
  end
  begin
     id 22 
     name lfingers
     direction 1 -4.49108e-011 -3.85244e-027   
     length 0.569339   
     axis 2.44611e-015 90 90   XYZ
    dof rx
    limits (0.0 90.0)
  end
  begin
     id 23
     name lthumb
     direction 0.707107 -6.34953e-011 0.707107   
     length 0.817461   
     axis -90 45 -1.62303e-014   XYZ
    dof rx rz
    limits (-45.0 45.0)
           (-45.0 45.0)
  end
  begin
     id 24 
     name rclavicle
     direction -0.905329 0.382405 -0.184787   
     length 3.30787  
     axis 0 0 0   XYZ 
    dof ry rz
    limits (-10.0 20.0)
           (-20.0 0.0)
  end
  begin
     id 25 
     name rhumerus
     direction -1 -4.48953e-011 -9.15316e-029  
     length 5.28721   
     axis 180 30 90   XYZ
    dof rx ry rz
    limits (-90.0 60.0)
           (-90.0 90.0)
           (-90.0 90.0)
  end
  begin
     id 26 
     name rradius
     direction -1 -4.48987e-011 9.37824e-028   
     length 3.50544   
     axis 180 30 90   XYZ
    dof rx
    limits (-10.0 170.0)
  end
  begin
     id 27 
     name rwrist
     direction -1 -4.48967e-011 -9.58414e-028   
     length 1.75272   
     axis 8.48502e-016 -90 -90   XYZ
    dof ry
    limits (-180.0 0.0)
  end
  begin
     id 28
     name rhand
     direction -1 -4.48904e-011 -1.91266e-027   
     length 0.884996   
     axis 1.22306e-015 -90 -90   XYZ
    dof rx rz
    limits (-90.0 90.0)
           (-45.0 45.0)
  end
  begin
     id 29
     name rfingers
     direction -1 -4.4909e-011 -3.85015e-027   
     length 0.713507   
     axis 2.44611e-015 -90 -90   XYZ
    dof rx
    limits (0.0 90.0)
  end
  begin
     id 30
     name rthumb
     direction -0.707107 -6.34853e-011 0.707107   
     length 1.02446   
     axis -90 -45 1.62303e-014   XYZ
    dof rx rz
    limits (-45.0 45.0)
           (-45.0 45.0)
  end
:hierarchy
  begin
    root lhipjoint rhipjoint lowerback
    lhipjoint lfemur
    lfemur ltibia
    ltibia lfoot
    lfoot ltoes
    rhipjoint rfemur
    rfemur rtibia
    rtibia rfoot
    rfoot rtoes
    lowerback upperback
    upperback thorax
    thorax lowerneck lclavicle rclavicle
    lowerneck upperneck
    upperneck head
    lclavicle lhumerus
    lhumerus lradius
    lradius lwrist
    lwrist lhand lthumb
    lhand lfingers
    rclavicle rhumerus
    rhumerus rradius
    rradius rwrist
    rwrist rhand rthumb
    rhand rfingers
  end

#!OML:ASF F:\twosubjects\two\Thursday\Session 1\justin.ASF
:FULLY-SPECIFIED
:DEGREES
17
root 4.0514 18.1549 12.0841 -173.418 -2.95887 183.661
lowerback -0.807614 -0.707947 -0.728223
upperback 1.48594 -1.08387 3.06944
thorax 2.05146 -0.620972 3.53688
lowerneck -23.7346 -6.31098 -10.6348
upperneck 20.5459 -7.14497 7.62573
head 11.2627 -3.20221 3.3353
rclavicle -5.61567e-015 1.66979e-014
rhumerus -53.5903 -31.4218 -41.6197
rradius 14.9161
rwrist 60.7901
rhand 3.88538 7.9297
rfingers 7.12502
rthumb 29.3063 -19.781
lclavicle -5.61567e-015 1.66979e-014
lhumerus -37.6713 15.6959 75.0544
lradius 18.6714
lwrist -22.1121
lhand 5.20111 42.1169
lfingers 7.12502
lthumb 30.5618 69.601
rfemur -25.3773 0.00484701 27.0907
rtibia 35.2334
rfoot -14.7013 -4.05285
rtoes -2.45141
lfemur -12.3779 0.945943 -14.2561
ltibia 62.8412
lfoot 13.6016 -12.0213
ltoes -4.89537
18
root 4.06624 18.1757 11.921 -173.354 -2.71495 183.614
lowerback -0.828548 -0.6657 -0.757306
upperback 1.58848 -1.0314 3.06128
thorax 2.1656 -0.598254 3.54557
lowerneck -23.7748 -6.3806 -10.3268
upperneck 20.5089 -6.97088 7.35951
head 11.2199 -3.02223 3.23588
rclavicle -2.5345e-015 1.98785e-015
rhumerus -55.7968 -30.8031 -40.0188
rradius 13.8543
rwrist 57.7262
rhand -0.135886 9.94049
rfingers 7.12502
rthumb 25.4602 -18.3789
lclavicle -2.5345e-015 1.98785e-015
lhumerus -38.9693 14.6321 75.4304
lradius 19.2697
lwrist -21.1354
lhand 4.98553 41.3881
lfingers 7.12502
lthumb 30.3562 68.9103
rfemur -24.5761 -0.0387592 27.1295
rtibia 34.7943
rfoot -15.1212 -3.84863
rtoes -2.38765
lfemur -13.6768 1.58264 -14.3085
ltibia 64.1312
lfoot 11.8519 -11.0361
ltoes -6.3329
19
root 4.08243 18.1979 11.7604 -173.349 -2.36674 183.679
lowerback -0.78603 -0.581883 -0.817384
upperback 1.59958 -0.92255 3.11622
thorax 2.14771 -0.546697 3.64003
lowerneck -23.1837 -6.26266 -10.3104
upperneck 20.1369 -6.89594 7.52372
head 10.9716 -2.97829 3.31045
rclavicle -1.2921e-015 1.82882e-014
rhumerus -56.8583 -28.4567 -41.1
rradius 14.4413
rwrist 56.2847
rhand 1.66804 7.41873
rfingers 7.12502
rthumb 27.1871 -20.6425
lclavicle -1.2921e-015 1.82882e-014
lhumerus -40.4186 14.19 75.4657
lradius 19.639
lwrist -20.76
lhand 4.72713 40.4368
lfingers 7.12502
lthumb 30.1097 68.0041
rfemur -23.6718 0.258592 27.2625
rtibia 34.2626
rfoot -15.5449 -3.89872
rtoes -2.5305
lfemur -14.9453 2.32305 -14.2768
ltibia 65.1901
lfoot 10.7434 -10.3021
ltoes -8.71781
20
root 4.0914 18.2191 11.5984 -173.285 -1.87662 183.759
lowerback -0.946112 -0.436285 -0.772635
upperback 1.68048 -0.735632 3.13054
thorax 2.30766 -0.45653 3.6334
lowerneck -22.7441 -6.16387 -10.4063
upperneck 19.9126 -6.8368 7.84725
head 10.8198 -2.92627 3.45912
rclavicle 8.00108e-015 1.15295e-014
rhumerus -58.4326 -27.296 -40.8249
rradius 14.6557
rwrist 55.277
rhand -4.88122 9.60286
rfingers 7.12502
rthumb 20.9075 -19.2904
lclavicle 8.00108e-015 1.15295e-014
lhumerus -41.7051 13.8974 75.4496
lradius 20.0294
lwrist -20.3812
lhand 4.88878 39.9798
lfingers 7.12502
lthumb 30.2639 67.5189
rfemur -22.8648 0.607951 27.3823
rtibia 33.7934
rfoot -15.8602 -3.8307
rtoes -2.93643
lfemur -16.2163 3.14908 -14.2659
ltibia 66.0544
lfoot 9.75053 -9.99161
ltoes -11.6279
21
root 4.09936 18.2304 11.4396 -173.165 -1.52666 183.838
lowerback -1.22662 -0.388064 -0.650552
upperback 1.88222 -0.689901 3.15578
thorax 2.66935 -0.440823 3.58999
lowerneck -23.0957 -6.0572 -10.4986
upperneck 20.1314 -6.67487 8.02925
head 10.9591 -2.82864 3.56964
rclavicle 1.39149e-015 -1.47101e-014
rhumerus -59.5592 -26.0994 -40.8799
rradius 14.8322
rwrist 53.7537
rhand 2.2916 6.27488
rfingers 7.12502
rthumb 27.7834 -21.6916
lclavicle 1.39149e-015 -1.47101e-014
lhumerus -42.7376 13.5801 75.6512
lradius 20.5284
lwrist -19.3497
lhand 5.02996 39.9437
lfingers 7.12502
lthumb 30.3985 67.4581
rfemur -22.1727 0.804519 27.5212
rtibia 33.3859
rfoot -16.0866 -3.76392
rtoes -3.64762
lfemur -17.3671 3.80877 -14.23
ltibia 66.6949
lfoot 8.25923 -9.5206
ltoes -12.7462
22
root 4.11092 18.2401 11.2917 -173.034 -1.42358 183.786
lowerback -1.36087 -0.427563 -0.654194
upperback 1.97796 -0.746976 3.13515
thorax 2.84749 -0.472452 3.56762
lowerneck -23.087 -6.00258 -10.3892
upperneck 20.092 -6.63573 8.02719
head 10.9345 -2.80275 3.55719
rclavicle 9.49197e-015 1.98785e-015
rhumerus -60.6821 -24.826 -40.9697
rradius 14.9444
rwrist 52.1136
rhand 2.45677 6.84754
rfingers 7.12502
rthumb 27.9413 -21.0934
lclavicle 9.49197e-015 1.98785e-015
lhumerus -43.8291 13.2329 75.7793
lradius 20.9104
lwrist -18.2448
lhand 4.75551 39.516
lfingers 7.12502
lthumb 30.1367 67.0784
rfemur -21.5777 0.776841 27.5384
rtibia 33.0789
rfoot -16.594 -3.72357
rtoes -3.90527
lfemur -18.4808 4.1781 -14.3066
ltibia 67.0854
lfoot 6.34247 -8.89051
ltoes -11.5554
23
root 4.12264 18.2541 11.1464 -172.93 -1.10935 183.616
lowerback -1.47045 -0.3664 -0.810373
upperback 2.10455 -0.659104 3.04312
thorax 3.03469 -0.432771 3.56341
lowerneck -22.9341 -5.97109 -10.159
upperneck 19.8362 -6.66296 7.96277
head 10.8033 -2.81043 3.488
rclavicle 1.08835e-014 -7.55382e-015
rhumerus -61.9294 -23.97 -40.6734
rradius 14.8429
rwrist 50.5269
rhand 2.20724 7.72498
rfingers 7.12502
rthumb 27.7028 -20.2545
lclavicle 1.08835e-014 -7.55382e-015
lhumerus -44.7839 12.9152 75.8462
lradius 21.2575
lwrist -17.2089
lhand 4.33283 39.1119
lfingers 7.12502
lthumb 29.7334 66.7471
rfemur -20.9852 0.749929 27.408
rtibia 32.838
rfoot -16.9928 -3.48556
rtoes -3.88697
lfemur -19.6063 4.69742 -14.5763
ltibia 67.2481
lfoot 4.66307 -8.50141
ltoes -10.0624
24
root 4.13031 18.2614 10.9995 -172.836 -0.697785 183.451
lowerback -1.63818 -0.300799 -0.944407
upperback 2.27022 -0.566764 2.93537
thorax 3.29444 -0.392111 3.5309
lowerneck -23.1233 -5.87248 -10.1747
upperneck 19.9019 -6.57024 8.22752
head 10.8638 -2.73102 3.60429
rclavicle -9.93923e-016 -2.74323e-014
rhumerus -62.9848 -23.0965 -40.6063
rradius 14.5049
rwrist 47.8507
rhand 1.29681 9.6963
rfingers 7.12502
rthumb 26.8319 -18.42
lclavicle -9.93923e-016 -2.74323e-014
lhumerus -45.6448 12.8794 75.7966
lradius 21.5787
lwrist -16.1413
lhand 4.11808 39.1703
lfingers 7.12502
lthumb 29.5284 66.8419
rfemur -20.3868 0.830637 27.2486
rtibia 32.5868
rfoot -17.1958 -3.34213
rtoes -4.9074
lfemur -20.7143 5.32446 -14.9009
ltibia 67.2777
lfoot 3.43458 -8.24014
ltoes -9.32294
25
root 4.13474 18.2639 10.8477 -172.948 -0.486083 183.448
lowerback -1.64488 -0.312659 -0.870914
upperback 2.44695 -0.592944 2.88836
thorax 3.48153 -0.408962 3.43951
lowerneck -23.2969 -5.79552 -10.1404
upperneck 20.1134 -6.48733 8.32007
head 10.9676 -2.67234 3.65023
rclavicle -2.48481e-016 6.75868e-015
rhumerus -63.3462 -21.1587 -42.5036
rradius 12.9669
rwrist 38.0499
rhand -5.13643 14.7887
rfingers 7.12502
rthumb 20.6623 -14.1315
lclavicle -2.48481e-016 6.75868e-015
lhumerus -46.6095 13.0875 75.5653
lradius 21.8452
lwrist -15.2826
lhand 3.94325 38.7649
lfingers 7.12502
lthumb 29.3615 66.4659
rfemur -19.5149 0.903647 27.2539
rtibia 32.2792
rfoot -17.6882 -3.2846
rtoes -4.53737
lfemur -21.4998 5.80969 -14.9473
ltibia 67.2684
lfoot 2.20162 -8.10313
ltoes -8.92266
26
root 4.13635 18.2642 10.7025 -173.15 -0.311446 183.679
lowerback -1.3551 -0.356276 -0.521647
upperback 2.50306 -0.672301 2.91096
thorax 3.37698 -0.443726 3.26316
lowerneck -23.0314 -5.71038 -10.0182
upperneck 20.0467 -6.39956 8.1988
head 10.8756 -2.64332 3.6014
rclavicle -2.68359e-015 7.95139e-015
rhumerus -65.7208 -22.0891 -37.9256
rradius 12.7481
rwrist 43.3572
rhand -2.85493 18.6298
rfingers 7.12502
rthumb 22.8532 -10.0361
lclavicle -2.68359e-015 7.95139e-015
lhumerus -47.8395 13.3217 75.2196
lradius 22.075
lwrist -14.5449
lhand 3.48644 37.5455
lfingers 7.12502
lthumb 28.9253 65.3221
rfemur -18.529 0.816432 27.5266
rtibia 31.8988
rfoot -18.3779 -2.98035
rtoes -1.38244
lfemur -22.2339 6.2325 -14.7214
ltibia 67.2438
lfoot 0.926259 -8.09882
ltoes -9.24471
